<mxfile host="app.diagrams.net" modified="2021-07-04T09:54:35.968Z" agent="5.0 (Windows)" etag="4wodZDD3m7ddoeCgWjeD" version="14.8.4" type="github">
  <diagram id="C5RBs43oDa-KdzZeNtuy" name="Page-1">
    <mxGraphModel dx="568" dy="426" grid="1" gridSize="10" guides="1" tooltips="1" connect="1" arrows="1" fold="1" page="1" pageScale="1" pageWidth="827" pageHeight="1169" math="0" shadow="0">
      <root>
        <mxCell id="WIyWlLk6GJQsqaUBKTNV-0" />
        <mxCell id="WIyWlLk6GJQsqaUBKTNV-1" parent="WIyWlLk6GJQsqaUBKTNV-0" />
        <mxCell id="bUyFcA3GIMRPNemhdNZh-24" value="" style="group" vertex="1" connectable="0" parent="WIyWlLk6GJQsqaUBKTNV-1">
          <mxGeometry x="30" y="35" width="345" height="270" as="geometry" />
        </mxCell>
        <mxCell id="bUyFcA3GIMRPNemhdNZh-21" value="" style="group" vertex="1" connectable="0" parent="bUyFcA3GIMRPNemhdNZh-24">
          <mxGeometry x="30" width="315" height="270" as="geometry" />
        </mxCell>
        <mxCell id="WIyWlLk6GJQsqaUBKTNV-3" value="Start" style="rounded=1;whiteSpace=wrap;html=1;fontSize=12;glass=0;strokeWidth=1;shadow=0;" parent="bUyFcA3GIMRPNemhdNZh-21" vertex="1">
          <mxGeometry x="20" width="70" height="20" as="geometry" />
        </mxCell>
        <mxCell id="WIyWlLk6GJQsqaUBKTNV-6" value="i&amp;lt;5" style="rhombus;whiteSpace=wrap;html=1;shadow=0;fontFamily=Helvetica;fontSize=12;align=center;strokeWidth=1;spacing=6;spacingTop=-4;" parent="bUyFcA3GIMRPNemhdNZh-21" vertex="1">
          <mxGeometry y="120" width="110" height="60" as="geometry" />
        </mxCell>
        <mxCell id="bUyFcA3GIMRPNemhdNZh-0" value="print(&#39;My name is&#39;)" style="rounded=0;whiteSpace=wrap;html=1;" vertex="1" parent="bUyFcA3GIMRPNemhdNZh-21">
          <mxGeometry y="40" width="110" height="20" as="geometry" />
        </mxCell>
        <mxCell id="bUyFcA3GIMRPNemhdNZh-7" style="edgeStyle=orthogonalEdgeStyle;rounded=0;orthogonalLoop=1;jettySize=auto;html=1;exitX=0.5;exitY=1;exitDx=0;exitDy=0;entryX=0.5;entryY=0;entryDx=0;entryDy=0;" edge="1" parent="bUyFcA3GIMRPNemhdNZh-21" source="WIyWlLk6GJQsqaUBKTNV-3" target="bUyFcA3GIMRPNemhdNZh-0">
          <mxGeometry relative="1" as="geometry" />
        </mxCell>
        <mxCell id="bUyFcA3GIMRPNemhdNZh-4" value="&lt;div&gt;print&lt;/div&gt;&lt;div&gt;(f&#39;Jimmy Five Times (#{i+1:02})&#39;)&lt;/div&gt;" style="rounded=0;whiteSpace=wrap;html=1;" vertex="1" parent="bUyFcA3GIMRPNemhdNZh-21">
          <mxGeometry x="135" y="135" width="180" height="30" as="geometry" />
        </mxCell>
        <mxCell id="bUyFcA3GIMRPNemhdNZh-6" style="edgeStyle=orthogonalEdgeStyle;rounded=0;orthogonalLoop=1;jettySize=auto;html=1;exitX=1;exitY=0.5;exitDx=0;exitDy=0;entryX=0;entryY=0.5;entryDx=0;entryDy=0;" edge="1" parent="bUyFcA3GIMRPNemhdNZh-21" source="WIyWlLk6GJQsqaUBKTNV-6" target="bUyFcA3GIMRPNemhdNZh-4">
          <mxGeometry relative="1" as="geometry" />
        </mxCell>
        <mxCell id="bUyFcA3GIMRPNemhdNZh-13" style="edgeStyle=orthogonalEdgeStyle;rounded=0;orthogonalLoop=1;jettySize=auto;html=1;exitX=0;exitY=0.5;exitDx=0;exitDy=0;entryX=0.5;entryY=1;entryDx=0;entryDy=0;" edge="1" parent="bUyFcA3GIMRPNemhdNZh-21" source="bUyFcA3GIMRPNemhdNZh-9" target="WIyWlLk6GJQsqaUBKTNV-6">
          <mxGeometry relative="1" as="geometry" />
        </mxCell>
        <mxCell id="bUyFcA3GIMRPNemhdNZh-9" value="i+=1" style="rounded=0;whiteSpace=wrap;html=1;" vertex="1" parent="bUyFcA3GIMRPNemhdNZh-21">
          <mxGeometry x="192.5" y="190" width="65" height="20" as="geometry" />
        </mxCell>
        <mxCell id="bUyFcA3GIMRPNemhdNZh-12" style="edgeStyle=orthogonalEdgeStyle;rounded=0;orthogonalLoop=1;jettySize=auto;html=1;exitX=0.5;exitY=1;exitDx=0;exitDy=0;entryX=0.5;entryY=0;entryDx=0;entryDy=0;" edge="1" parent="bUyFcA3GIMRPNemhdNZh-21" source="bUyFcA3GIMRPNemhdNZh-4" target="bUyFcA3GIMRPNemhdNZh-9">
          <mxGeometry relative="1" as="geometry" />
        </mxCell>
        <mxCell id="bUyFcA3GIMRPNemhdNZh-11" style="edgeStyle=orthogonalEdgeStyle;rounded=0;orthogonalLoop=1;jettySize=auto;html=1;exitX=0.5;exitY=1;exitDx=0;exitDy=0;entryX=0.5;entryY=0;entryDx=0;entryDy=0;" edge="1" parent="bUyFcA3GIMRPNemhdNZh-21" source="bUyFcA3GIMRPNemhdNZh-10" target="WIyWlLk6GJQsqaUBKTNV-6">
          <mxGeometry relative="1" as="geometry" />
        </mxCell>
        <mxCell id="bUyFcA3GIMRPNemhdNZh-10" value="i=0" style="rounded=0;whiteSpace=wrap;html=1;" vertex="1" parent="bUyFcA3GIMRPNemhdNZh-21">
          <mxGeometry x="22.5" y="80" width="65" height="20" as="geometry" />
        </mxCell>
        <mxCell id="bUyFcA3GIMRPNemhdNZh-8" style="edgeStyle=orthogonalEdgeStyle;rounded=0;orthogonalLoop=1;jettySize=auto;html=1;exitX=0.5;exitY=1;exitDx=0;exitDy=0;entryX=0.5;entryY=0;entryDx=0;entryDy=0;" edge="1" parent="bUyFcA3GIMRPNemhdNZh-21" source="bUyFcA3GIMRPNemhdNZh-0" target="bUyFcA3GIMRPNemhdNZh-10">
          <mxGeometry relative="1" as="geometry">
            <mxPoint x="55" y="70" as="targetPoint" />
          </mxGeometry>
        </mxCell>
        <mxCell id="bUyFcA3GIMRPNemhdNZh-20" style="edgeStyle=orthogonalEdgeStyle;rounded=0;orthogonalLoop=1;jettySize=auto;html=1;exitX=0.5;exitY=1;exitDx=0;exitDy=0;" edge="1" parent="bUyFcA3GIMRPNemhdNZh-21" source="bUyFcA3GIMRPNemhdNZh-14">
          <mxGeometry relative="1" as="geometry">
            <mxPoint x="55" y="249" as="targetPoint" />
          </mxGeometry>
        </mxCell>
        <mxCell id="bUyFcA3GIMRPNemhdNZh-14" value="" style="ellipse;whiteSpace=wrap;html=1;aspect=fixed;" vertex="1" parent="bUyFcA3GIMRPNemhdNZh-21">
          <mxGeometry x="45" y="210" width="20" height="20" as="geometry" />
        </mxCell>
        <mxCell id="bUyFcA3GIMRPNemhdNZh-15" style="edgeStyle=orthogonalEdgeStyle;rounded=0;orthogonalLoop=1;jettySize=auto;html=1;exitX=0;exitY=0.5;exitDx=0;exitDy=0;entryX=0;entryY=0.5;entryDx=0;entryDy=0;" edge="1" parent="bUyFcA3GIMRPNemhdNZh-21" source="WIyWlLk6GJQsqaUBKTNV-6" target="bUyFcA3GIMRPNemhdNZh-14">
          <mxGeometry relative="1" as="geometry" />
        </mxCell>
        <mxCell id="bUyFcA3GIMRPNemhdNZh-19" value="End" style="rounded=1;whiteSpace=wrap;html=1;fontSize=12;glass=0;strokeWidth=1;shadow=0;" vertex="1" parent="bUyFcA3GIMRPNemhdNZh-21">
          <mxGeometry x="20" y="250" width="70" height="20" as="geometry" />
        </mxCell>
        <mxCell id="bUyFcA3GIMRPNemhdNZh-22" value="&lt;div&gt;Yes&lt;/div&gt;" style="text;html=1;strokeColor=none;fillColor=none;align=center;verticalAlign=middle;whiteSpace=wrap;rounded=0;" vertex="1" parent="bUyFcA3GIMRPNemhdNZh-21">
          <mxGeometry x="95" y="125" width="40" height="20" as="geometry" />
        </mxCell>
        <mxCell id="bUyFcA3GIMRPNemhdNZh-23" value="No" style="text;html=1;strokeColor=none;fillColor=none;align=center;verticalAlign=middle;whiteSpace=wrap;rounded=0;" vertex="1" parent="bUyFcA3GIMRPNemhdNZh-24">
          <mxGeometry y="125" width="40" height="20" as="geometry" />
        </mxCell>
      </root>
    </mxGraphModel>
  </diagram>
</mxfile>
